Patient4_TMGait_0pt3_02_left_08_GRF.mot
version=1
nRows=45
nColumns=19
inDegrees=no
endheader
time	F1x	F1y	F1z	M1x	M1y	M1z	F2x	F2y	F2z	M2x	M2y	M2z	EC1x	EC1y	EC1z	EC2x	EC2y	EC2z
15.5	0.9527	-0.15632	-4.4994	1.201	4.8883	2.5911	-13.6098	752.3331	-40.1126	268.0587	46.6402	717.2154	-0.0592	0.0182	-0.0073	-0.0462	0.0165	0.9585
15.5196	0.48697	-0.14657	-3.1035	0.83639	3.3099	1.7725	-13.436	761.643	-41.1708	271.1962	47.4816	725.0565	-0.0592	0.0182	-0.0073	-0.0462	0.0165	0.9585
15.5391	0.095033	-0.13927	-1.8993	0.51757	1.9451	1.0848	-13.6677	773.6903	-42.4038	275.3282	48.4674	735.045	-0.0592	0.0182	-0.0073	-0.0462	0.0165	0.9585
15.5587	-0.20806	-0.12588	-0.97006	0.26377	0.88728	0.57385	-14.3274	788.5944	-43.7494	280.491	49.5546	747.2995	-0.0592	0.0182	-0.0073	-0.0462	0.0165	0.9585
15.5783	-0.42825	-0.10381	-0.32222	0.077032	0.14462	0.23787	-15.3054	806.104	-45.1055	286.5831	50.6405	761.5836	-0.0592	0.0182	-0.0073	-0.0462	0.0165	0.9585
15.5979	-0.58167	-0.079895	0.081978	-0.048601	-0.32491	0.044182	-16.3958	825.2634	-46.3418	293.2553	51.5714	777.0091	-0.0592	0.0182	-0.0073	-0.0462	0.0165	0.9585
15.6174	-0.68884	-0.068303	0.29773	-0.12005	-0.58438	-0.055529	-17.3631	844.2609	-47.3224	299.8563	52.1749	791.9168	-0.0592	0.0182	-0.0073	-0.0462	0.0165	0.9585
15.637	-0.76599	-0.093726	0.38144	-0.14079	-0.69873	-0.11977	-17.9977	860.6383	-47.9251	305.5048	52.2913	804.0873	-0.0592	0.0182	-0.0073	-0.0462	0.0165	0.9585
15.6566	-0.82528	-0.18854	0.3832	-0.10871	-0.72463	-0.21179	-18.1601	871.8247	-48.0591	309.2789	51.8051	811.2427	-0.0592	0.0182	-0.0073	-0.0462	0.0165	0.9585
15.6761	-0.87596	-0.39332	0.34197	-0.017077	-0.70318	-0.39849	-17.7957	875.7384	-47.6835	310.4324	50.6681	811.5925	-0.0592	0.0182	-0.0073	-0.0462	0.0165	0.9585
15.6957	-0.9226	-0.76073	0.28655	0.14542	-0.6643	-0.75416	-16.9081	871.2837	-46.8317	308.5734	48.9175	804.2538	-0.0592	0.0182	-0.0073	-0.0462	0.0165	0.9585
15.7153	-0.96561	-1.3489	0.2345	0.39351	-0.62502	-1.3471	-15.5208	858.5983	-45.6217	303.7539	46.6748	789.4396	-0.0592	0.0182	-0.0073	-0.0462	0.0165	0.9585
15.7349	-0.99251	-2.1999	0.19292	0.73938	-0.58885	-2.2214	-13.6529	839.0209	-44.229	296.4598	44.1168	768.3993	-0.0592	0.0182	-0.0073	-0.0462	0.0165	0.9585
15.7544	-0.97143	-3.3161	0.16086	1.1819	-0.54117	-3.3823	-11.3111	814.8048	-42.8319	287.508	41.4206	743.155	-0.0592	0.0182	-0.0073	-0.0462	0.0165	0.9585
15.774	-0.85231	-4.6315	0.13285	1.696	-0.45567	-4.7652	-8.4949	788.6399	-41.5718	277.8744	38.7266	716.0758	-0.0592	0.0182	-0.0073	-0.0462	0.0165	0.9585
15.7936	-0.56793	-5.9704	0.10525	2.2144	-0.30454	-6.1899	-5.2111	763.1538	-40.5289	268.5152	36.1215	689.4488	-0.0592	0.0182	-0.0073	-0.0462	0.0165	0.9585
15.8131	-0.040489	-6.9982	0.078027	2.6072	-0.060814	-7.3107	-1.4805	740.5383	-39.7253	260.2287	33.64	665.1591	-0.0592	0.0182	-0.0073	-0.0462	0.0165	0.9585
15.8327	0.80636	-7.1744	0.054855	2.6649	0.29796	-7.5608	2.6728	722.3413	-39.1533	253.575	31.2844	644.5271	-0.0592	0.0182	-0.0073	-0.0462	0.0165	0.9585
15.8523	2.0269	-5.718	0.043989	2.0819	0.7849	-6.1165	7.2139	709.3629	-38.7989	248.834	29.0494	628.2345	-0.0592	0.0182	-0.0073	-0.0462	0.0165	0.9585
15.8719	3.625	-1.5984	0.059126	0.45873	1.3884	-1.8988	12.0696	701.5946	-38.6579	245.9807	26.9442	616.2849	-0.0592	0.0182	-0.0073	-0.0462	0.0165	0.9585
15.8914	5.507	6.4074	0.12261	-2.6737	2.0511	6.3684	17.1065	698.2223	-38.7415	244.6901	25.004	608.0376	-0.0592	0.0182	-0.0073	-0.0462	0.0165	0.9585
15.911	7.4215	19.5467	0.26522	-7.7924	2.6487	19.9965	22.1132	697.6879	-39.0629	244.3673	23.2867	602.2811	-0.0592	0.0182	-0.0073	-0.0462	0.0165	0.9585
15.9306	8.8952	38.786	0.52304	-15.2659	2.9643	40.0202	26.7885	697.8295	-39.6051	244.2064	21.8612	597.3591	-0.0592	0.0182	-0.0073	-0.0462	0.0165	0.9585
15.9501	9.1424	64.4101	0.94576	-25.1953	2.6426	66.781	30.7361	696.1136	-40.2937	243.2866	20.7955	591.3521	-0.0592	0.0182	-0.0073	-0.0462	0.0165	0.9585
15.9697	7.4108	95.9132	1.6343	-37.3682	1.2895	99.8085	33.5244	690.0432	-41	240.7302	20.1422	582.3812	-0.0592	0.0182	-0.0073	-0.0462	0.0165	0.9585
15.9893	3.7275	132.3403	2.7586	-51.3873	-1.2669	138.1269	34.8126	677.6497	-41.5408	235.8839	19.8894	568.9571	-0.0592	0.0182	-0.0073	-0.0462	0.0165	0.9585
16.0089	-1.3765	171.8776	4.6113	-66.5177	-5.1367	179.7865	34.4863	657.79	-41.6913	228.4153	19.917	550.1737	-0.0592	0.0182	-0.0073	-0.0462	0.0165	0.9585
16.0284	-7.0598	211.8303	7.3994	-81.7075	-10.2192	221.8635	32.7143	630.2432	-41.2591	218.3272	20.0323	525.77	-0.0592	0.0182	-0.0073	-0.0462	0.0165	0.9585
16.048	-12.3649	249.7457	10.861	-96.0448	-15.8579	261.6166	29.8995	595.6624	-40.1721	205.915	20.0499	496.1076	-0.0592	0.0182	-0.0073	-0.0462	0.0165	0.9585
16.0676	-16.6318	284.6355	14.4731	-109.1986	-21.234	297.8383	26.562	555.4299	-38.4724	191.7005	19.829	462.1168	-0.0592	0.0182	-0.0073	-0.0462	0.0165	0.9585
16.0871	-19.6539	317.1277	17.8504	-121.4455	-25.8604	331.0846	23.1909	511.4121	-36.2419	176.3418	19.2649	425.1589	-0.0592	0.0182	-0.0073	-0.0462	0.0165	0.9585
16.1067	-21.5027	348.6392	20.8064	-133.34	-29.5716	362.783	20.145	465.6098	-33.5764	160.5153	18.3056	386.7712	-0.0592	0.0182	-0.0073	-0.0462	0.0165	0.9585
16.1263	-22.3466	380.4011	23.3926	-145.3394	-32.488	394.1906	17.5897	419.7793	-30.6072	144.7925	16.9889	348.3576	-0.0592	0.0182	-0.0073	-0.0462	0.0165	0.9585
16.1459	-22.3644	412.9586	25.822	-157.6211	-34.8975	425.8703	15.5135	375.1766	-27.5064	129.5626	15.4414	310.961	-0.0592	0.0182	-0.0073	-0.0462	0.0165	0.9585
16.1654	-21.7408	446.2567	28.3328	-170.1301	-37.1087	457.7702	13.8066	332.4756	-24.4362	115.014	13.8149	275.164	-0.0592	0.0182	-0.0073	-0.0462	0.0165	0.9585
16.185	-20.6728	479.9801	31.0922	-182.7201	-39.3584	489.573	12.3222	291.8544	-21.4951	101.1711	12.226	241.1479	-0.0592	0.0182	-0.0073	-0.0462	0.0165	0.9585
16.2046	-19.3505	513.8803	34.1402	-195.2844	-41.7532	521.0371	10.9105	253.1887	-18.7106	87.9648	10.7375	208.8441	-0.0592	0.0182	-0.0073	-0.0462	0.0165	0.9585
16.2241	-17.9143	547.8103	37.4011	-207.7688	-44.2728	552.0357	9.4575	216.2837	-16.0795	75.3129	9.3744	178.116	-0.0592	0.0182	-0.0073	-0.0462	0.0165	0.9585
16.2437	-16.4282	581.4953	40.7405	-220.0835	-46.817	582.339	7.9085	181.1056	-13.6115	63.1985	8.15	148.9472	-0.0592	0.0182	-0.0073	-0.0462	0.0165	0.9585
16.2633	-14.8819	614.3708	43.9881	-232.0416	-49.2293	611.4521	6.2817	147.9074	-11.3408	51.711	7.0714	121.5373	-0.0592	0.0182	-0.0073	-0.0462	0.0165	0.9585
16.2829	-13.2273	645.5727	46.9266	-243.3521	-51.2947	638.5979	4.6632	117.2025	-9.311	41.0363	6.1315	96.2729	-0.0592	0.0182	-0.0073	-0.0462	0.0165	0.9585
16.3024	-11.4271	674.0335	49.2966	-253.6489	-52.7621	662.8142	3.1634	89.603	-7.55	31.4011	5.3074	73.6131	-0.0592	0.0182	-0.0073	-0.0462	0.0165	0.9585
16.322	-9.4826	698.6311	50.8568	-262.5419	-53.4127	683.1055	1.8678	65.6075	-6.0439	22.9976	4.5608	53.9344	-0.0592	0.0182	-0.0073	-0.0462	0.0165	0.9585
16.3416	-7.4349	718.3823	51.4646	-269.6891	-53.1345	698.6278	0.82757	45.4901	-4.7423	15.9406	3.845	37.4419	-0.0592	0.0182	-0.0073	-0.0462	0.0165	0.9585
16.3611	-5.3683	732.6345	51.1197	-274.8681	-51.9651	708.8667	0.058891	29.3032	-3.5921	10.2618	3.1284	24.1693	-0.0592	0.0182	-0.0073	-0.0462	0.0165	0.9585
